<svg width="48" height="48" viewBox="0 0 48 48" fill="none" xmlns="http://www.w3.org/2000/svg">
<path d="M31.9999 25C31.9999 24.7347 31.8945 24.4804 31.707 24.2928C31.5195 24.1053 31.2651 24 30.9999 24C30.7347 24 30.4803 24.1053 30.2928 24.2928C30.1052 24.4804 29.9999 24.7347 29.9999 25V26C29.9999 26.2652 30.1052 26.5195 30.2928 26.7071C30.4803 26.8946 30.7347 27 30.9999 27C31.2651 27 31.5195 26.8946 31.707 26.7071C31.8945 26.5195 31.9999 26.2652 31.9999 26V25ZM23.9999 21C24.2651 21 24.5195 21.1053 24.707 21.2928C24.8945 21.4804 24.9999 21.7347 24.9999 22V28C24.9999 28.2652 24.8945 28.5195 24.707 28.7071C24.5195 28.8946 24.2651 29 23.9999 29C23.7347 29 23.4803 28.8946 23.2928 28.7071C23.1052 28.5195 22.9999 28.2652 22.9999 28V22C22.9999 21.7347 23.1052 21.4804 23.2928 21.2928C23.4803 21.1053 23.7347 21 23.9999 21Z" fill="#253238"/>
<path fill-rule="evenodd" clip-rule="evenodd" d="M27.3979 10.36C25.4657 9.90885 23.4587 9.88156 21.5149 10.28C17.0879 11.134 14.0299 13.783 12.1919 17.22C10.3669 20.633 9.74588 24.807 10.0939 28.811V28.815C10.1939 29.934 10.5789 31.429 11.1739 32.766C11.7459 34.05 12.6269 35.449 13.8689 36.042L13.8769 36.045C16.7339 37.378 19.8559 38.045 23.0069 37.998C26.7059 37.997 29.2139 37.485 30.8279 36.948C31.4441 36.7494 32.0406 36.4943 32.6099 36.186C32.7642 36.1008 32.9143 36.0083 33.0599 35.909C33.1289 35.862 33.1989 35.812 33.2619 35.758C34.8389 34.402 36.0459 32.278 36.8419 30.036C37.6419 27.781 38.0639 25.296 37.9889 23.126V23.116C37.9017 21.1324 37.3848 19.1914 36.4738 17.4271C35.5629 15.6629 34.2797 14.1176 32.7129 12.898C31.1456 11.6776 29.3322 10.8117 27.3979 10.36ZM34.9559 29.367C34.2269 31.423 33.1799 33.184 31.9739 34.227C31.8658 34.303 31.7536 34.3731 31.6379 34.437C31.1774 34.6852 30.695 34.8904 30.1969 35.05C28.8119 35.51 26.5169 35.998 22.9999 35.998H22.9849C20.1343 36.0422 17.3109 35.4394 14.7269 34.235C14.2769 34.019 13.7769 33.448 13.3189 32.6C17.6917 33.5585 22.2305 33.4546 26.5549 32.297C27.2103 32.1255 27.7915 31.744 28.2096 31.2109C28.6277 30.6778 28.8596 30.0224 28.8699 29.345V23.244C28.8829 21.6814 28.3484 20.1636 27.3593 18.9538C26.3703 17.7441 24.9889 16.9187 23.4549 16.621L16.3399 15.017C17.7899 13.659 19.6299 12.679 21.8999 12.242L21.9109 12.24C24.4163 11.7261 27.021 12.0444 29.3289 13.1466C31.6368 14.2487 33.5217 16.0744 34.6969 18.346C35.4741 19.851 35.9156 21.5067 35.9909 23.199C36.0549 25.084 35.6829 27.318 34.9559 29.367ZM14.8439 16.73C14.5189 17.184 14.2239 17.663 13.9559 18.164C12.3529 21.16 11.7639 24.928 12.0859 28.637C12.1289 29.108 12.2409 29.696 12.4159 30.317C16.8726 31.5435 21.5758 31.5597 26.0409 30.364L26.0479 30.362C26.2793 30.3016 26.4848 30.1674 26.6331 29.9797C26.7815 29.792 26.8646 29.5611 26.8699 29.322V23.23C26.8799 22.1262 26.5003 21.0543 25.798 20.2029C25.0956 19.3514 24.1154 18.775 23.0299 18.575L14.8439 16.73Z" fill="#253238"/>
</svg>
