<svg width="48" height="48" viewBox="0 0 48 48" fill="none" xmlns="http://www.w3.org/2000/svg">
<path fill-rule="evenodd" clip-rule="evenodd" d="M13 24.72L10.392 25.241C10.102 25.299 9.80266 25.2919 9.51568 25.2203C9.2287 25.1487 8.96118 25.0143 8.7324 24.8268C8.50361 24.6393 8.31925 24.4035 8.19261 24.1362C8.06596 23.8689 8.00018 23.5768 8 23.281V14.633C7.99992 14.2543 8.10739 13.8833 8.30991 13.5632C8.51243 13.2431 8.80168 12.9871 9.144 12.825L16.701 9.24503C17.3038 8.95972 17.9943 8.9219 18.6246 9.13967C19.255 9.35744 19.7749 9.81348 20.073 10.41L20.741 11.745C21.0573 12.3779 21.5877 12.8782 22.238 13.157C23.363 13.639 24.637 13.639 25.762 13.157C26.4123 12.8782 26.9427 12.3779 27.259 11.745L27.927 10.41C28.2253 9.81365 28.7453 9.35784 29.3756 9.14026C30.0059 8.92268 30.6964 8.96065 31.299 9.24603L38.856 12.826C39.198 12.988 39.4871 13.2437 39.6896 13.5633C39.8921 13.883 39.9997 14.2536 40 14.632V23.279C40 23.5749 39.9343 23.8671 39.8077 24.1345C39.6811 24.4019 39.4968 24.6379 39.268 24.8255C39.0392 25.0131 38.7716 25.1476 38.4846 25.2192C38.1975 25.2909 37.8981 25.298 37.608 25.24L35 24.72V37C35 37.5305 34.7893 38.0392 34.4142 38.4142C34.0391 38.7893 33.5304 39 33 39H15C14.4696 39 13.9609 38.7893 13.5858 38.4142C13.2107 38.0392 13 37.5305 13 37V24.72ZM17.557 11.053C17.6869 10.9916 17.8358 10.9834 17.9717 11.0303C18.1075 11.0772 18.2197 11.1755 18.284 11.304L18.952 12.639C19.4798 13.6951 20.3649 14.5299 21.45 14.995C22.2558 15.3403 23.1233 15.5184 24 15.5184C24.8767 15.5184 25.7442 15.3403 26.55 14.995C27.6349 14.5301 28.52 13.6957 29.048 12.64L29.716 11.304C29.7805 11.1757 29.8927 11.0776 30.0286 11.0309C30.1644 10.9842 30.3132 10.9925 30.443 11.054L38 14.632V23.279L35 22.679V20.5C35 20.2348 34.8946 19.9805 34.7071 19.7929C34.5196 19.6054 34.2652 19.5 34 19.5C33.7348 19.5 33.4804 19.6054 33.2929 19.7929C33.1054 19.9805 33 20.2348 33 20.5V32H15V20.5C15 20.2348 14.8946 19.9805 14.7071 19.7929C14.5196 19.6054 14.2652 19.5 14 19.5C13.7348 19.5 13.4804 19.6054 13.2929 19.7929C13.1054 19.9805 13 20.2348 13 20.5V22.68L10 23.28V14.633L17.557 11.053ZM33 34V37H15V34H33Z" fill="#253238"/>
</svg>
