<svg width="24" height="24" viewBox="0 0 24 24" fill="none" xmlns="http://www.w3.org/2000/svg">
<path fill-rule="evenodd" clip-rule="evenodd" d="M15.97 19.28C15.8295 19.1394 15.7507 18.9487 15.7507 18.75C15.7507 18.5512 15.8295 18.3606 15.97 18.22L21.44 12.75H0.75C0.551088 12.75 0.360322 12.671 0.21967 12.5303C0.0790176 12.3897 0 12.1989 0 12C0 11.8011 0.0790176 11.6103 0.21967 11.4697C0.360322 11.329 0.551088 11.25 0.75 11.25H21.44L15.97 5.78C15.8375 5.63782 15.7654 5.44978 15.7688 5.25548C15.7723 5.06118 15.851 4.87579 15.9884 4.73838C16.1258 4.60096 16.3112 4.52225 16.5055 4.51882C16.6998 4.5154 16.8878 4.58752 17.03 4.72L23.78 11.47C23.9205 11.6106 23.9993 11.8012 23.9993 12C23.9993 12.1987 23.9205 12.3894 23.78 12.53L17.03 19.28C16.8894 19.4205 16.6988 19.4993 16.5 19.4993C16.3012 19.4993 16.1106 19.4205 15.97 19.28Z" fill="#29363D"/>
</svg>
