<svg width="33" height="23" viewBox="0 0 33 23" fill="none" xmlns="http://www.w3.org/2000/svg">
<g clip-path="url(#clip0_11168_10681)">
<path fill-rule="evenodd" clip-rule="evenodd" d="M13.4488 1.316L13.4468 1.321L13.4368 1.351L13.3988 1.479C13.2004 2.14919 13.0655 2.83655 12.9958 3.532C12.9378 4.133 12.9448 4.721 13.0538 5.212C13.1078 5.452 13.1808 5.651 13.2698 5.812C15.6668 5.002 18.1898 5.827 19.5798 8H28.9998C29.265 7.99562 29.5211 8.09678 29.7118 8.28123C29.9024 8.46567 30.0119 8.71828 30.0163 8.9835C30.0207 9.24872 29.9195 9.50481 29.7351 9.69544C29.5507 9.88607 29.298 9.99562 29.0328 10C28.0059 10.0341 26.9978 10.2852 26.0748 10.7367C25.1519 11.1883 24.335 11.8301 23.6778 12.62L24.6258 13.31C25.5406 12.4743 26.7332 12.008 27.9722 12.0016C29.2113 11.9952 30.4086 12.4491 31.332 13.2753C32.2555 14.1015 32.8392 15.2411 32.9702 16.4732C33.1011 17.7054 32.7698 18.9422 32.0406 19.944C31.3114 20.9458 30.2362 21.6412 29.0235 21.8953C27.8108 22.1494 26.5469 21.9441 25.4769 21.3193C24.4068 20.6945 23.607 19.6946 23.2322 18.5136C22.8575 17.3325 22.9347 16.0544 23.4488 14.927L22.6208 14.324C22.2413 15.179 22.0301 16.0991 21.9988 17.034C21.99 17.2931 21.8809 17.5387 21.6945 17.7189C21.5082 17.8991 21.2591 17.9999 20.9998 18H13.9998C13.7402 18.0001 13.4908 17.8993 13.3041 17.7189C13.1175 17.5384 13.0084 17.2925 12.9998 17.033C12.9674 16.0584 12.7395 15.1002 12.3296 14.2153C11.9197 13.3305 11.3363 12.537 10.6138 11.882L9.54883 13.478C10.4211 14.3581 10.9355 15.5307 10.9923 16.7685C11.0491 18.0063 10.6443 19.2211 9.85632 20.1774C9.06835 21.1336 7.95336 21.7633 6.72753 21.9442C5.5017 22.1251 4.25237 21.8444 3.22176 21.1564C2.19114 20.4685 1.45267 19.4225 1.14952 18.221C0.846363 17.0196 1.00012 15.7484 1.58099 14.6538C2.16186 13.5593 3.12844 12.7195 4.29335 12.2971C5.45825 11.8748 6.73848 11.9001 7.88583 12.368L8.96183 10.755C8.02906 10.2917 7.00774 10.0339 5.96683 9.999C5.70754 9.99044 5.46174 9.88145 5.2813 9.69505C5.10087 9.50865 4.99994 9.25942 4.99983 9V7.5C4.99983 5.51088 5.79 3.60322 7.19653 2.1967C8.60305 0.790176 10.5107 0 12.4998 0C12.6582 1.45145e-05 12.8142 0.0376261 12.9552 0.10974C13.0961 0.181854 13.218 0.28641 13.3106 0.414803C13.4033 0.543195 13.4641 0.691754 13.4882 0.848255C13.5122 1.00476 13.4987 1.16473 13.4488 1.315V1.316ZM8.61083 3.611C9.31859 2.90306 10.2061 2.40172 11.1778 2.161C11.1078 2.518 11.0448 2.92 11.0038 3.343C10.9368 4.055 10.9298 4.873 11.1018 5.647C11.2748 6.424 11.6468 7.235 12.3998 7.8C12.5463 7.90975 12.72 7.9772 12.9022 7.99501C13.0843 8.01282 13.2679 7.9803 13.4328 7.901C15.2708 7.018 17.2008 7.645 18.1058 9.449C18.1891 9.61471 18.3168 9.754 18.4747 9.8513C18.6326 9.9486 18.8144 10.0001 18.9998 10H23.5148C21.6412 11.4836 20.4122 13.6328 20.0838 16H14.9158C14.638 13.9987 13.7146 12.1427 12.2859 10.7139C10.8572 9.28519 9.00117 8.3618 6.99983 8.084V7.5C6.99959 6.77764 7.14165 6.06231 7.41789 5.39486C7.69414 4.7274 8.09916 4.12091 8.60983 3.61L8.61083 3.611ZM25.1238 16.145C24.9219 16.8233 24.9662 17.5511 25.249 18.1998C25.5318 18.8485 26.0348 19.3764 26.6692 19.6901C27.3035 20.0039 28.0284 20.0832 28.7156 19.9142C29.4028 19.7452 30.0081 19.3387 30.4246 18.7665C30.8411 18.1944 31.0419 17.4934 30.9915 16.7875C30.9411 16.0816 30.6428 15.4162 30.1493 14.909C29.6558 14.4018 28.9989 14.0853 28.2947 14.0156C27.5904 13.9459 26.8842 14.1274 26.3008 14.528L28.5878 16.191C28.8024 16.3469 28.9462 16.5817 28.9877 16.8437C29.0291 17.1057 28.9648 17.3734 28.8088 17.588C28.6529 17.8026 28.4181 17.9464 28.1561 17.9878C27.8941 18.0293 27.6264 17.9649 27.4118 17.809L25.1238 16.145ZM5.16783 16.445L6.73783 14.091C6.05187 13.917 5.32649 13.9911 4.68989 14.3002C4.0533 14.6093 3.54646 15.1335 3.25897 15.7802C2.97149 16.4268 2.92185 17.1543 3.11884 17.834C3.31583 18.5137 3.74676 19.1019 4.33548 19.4946C4.92419 19.8873 5.63278 20.0593 6.33601 19.9801C7.03924 19.9009 7.69183 19.5756 8.17845 19.0618C8.66507 18.548 8.95438 17.8787 8.99526 17.1722C9.03614 16.4657 8.82594 15.7675 8.40183 15.201L6.83183 17.555C6.68463 17.7757 6.45581 17.9288 6.19569 17.9808C5.93558 18.0327 5.66549 17.9792 5.44483 17.832C5.22417 17.6848 5.07102 17.456 5.01907 17.1959C4.96712 16.9358 5.02063 16.6657 5.16783 16.445Z" fill="#253238"/>
</g>
<defs>
<clipPath id="clip0_11168_10681">
<rect width="33" height="23" fill="white"/>
</clipPath>
</defs>
</svg>
