<svg width="48" height="48" viewBox="0 0 48 48" fill="none" xmlns="http://www.w3.org/2000/svg">
<path d="M16 13C16 12.7348 16.1054 12.4804 16.2929 12.2929C16.4804 12.1054 16.7348 12 17 12H29C29.2652 12 29.5196 12.1054 29.7071 12.2929C29.8946 12.4804 30 12.7348 30 13C30 13.2652 29.8946 13.5196 29.7071 13.7071C29.5196 13.8946 29.2652 14 29 14H17C16.7348 14 16.4804 13.8946 16.2929 13.7071C16.1054 13.5196 16 13.2652 16 13ZM23 34C22.7348 34 22.4804 34.1054 22.2929 34.2929C22.1054 34.4804 22 34.7348 22 35C22 35.2652 22.1054 35.5196 22.2929 35.7071C22.4804 35.8946 22.7348 36 23 36H24C24.2652 36 24.5196 35.8946 24.7071 35.7071C24.8946 35.5196 25 35.2652 25 35C25 34.7348 24.8946 34.4804 24.7071 34.2929C24.5196 34.1054 24.2652 34 24 34H23Z" fill="#253238"/>
<path fill-rule="evenodd" clip-rule="evenodd" d="M12 12C12 10.9391 12.4214 9.92172 13.1716 9.17157C13.9217 8.42143 14.9391 8 16 8H30C31.0609 8 32.0783 8.42143 32.8284 9.17157C33.5786 9.92172 34 10.9391 34 12V14C34.2652 14 34.5196 14.1054 34.7071 14.2929C34.8946 14.4804 35 14.7348 35 15V16C35 16.2652 34.8946 16.5196 34.7071 16.7071C34.5196 16.8946 34.2652 17 34 17V19C34.2652 19 34.5196 19.1054 34.7071 19.2929C34.8946 19.4804 35 19.7348 35 20V21C35 21.2652 34.8946 21.5196 34.7071 21.7071C34.5196 21.8946 34.2652 22 34 22V36C34 37.0609 33.5786 38.0783 32.8284 38.8284C32.0783 39.5786 31.0609 40 30 40H16C14.9391 40 13.9217 39.5786 13.1716 38.8284C12.4214 38.0783 12 37.0609 12 36V12ZM16 10C15.4696 10 14.9609 10.2107 14.5858 10.5858C14.2107 10.9609 14 11.4696 14 12V36C14 36.5304 14.2107 37.0391 14.5858 37.4142C14.9609 37.7893 15.4696 38 16 38H30C30.5304 38 31.0391 37.7893 31.4142 37.4142C31.7893 37.0391 32 36.5304 32 36V12C32 11.4696 31.7893 10.9609 31.4142 10.5858C31.0391 10.2107 30.5304 10 30 10H16Z" fill="#253238"/>
</svg>
