<svg width="752" height="147" viewBox="0 0 752 147" fill="none" xmlns="http://www.w3.org/2000/svg">
<g clip-path="url(#clip0_11168_9221)">
<path d="M261.356 91.25V64.927C261.356 62.783 260.501 60.727 258.981 59.21C257.459 57.6933 255.398 56.8418 253.25 56.842H230.944C229.371 56.8424 227.863 56.2192 226.749 55.109C226.198 54.5601 225.761 53.9078 225.463 53.1897C225.165 52.4715 225.011 51.7016 225.011 50.924V40.504C225.011 39.4535 224.73 38.4221 224.199 37.5161C223.667 36.6102 222.903 35.8624 221.986 35.35V28.465C221.959 27.992 221.752 27.5473 221.408 27.222C221.064 26.8967 220.608 26.7155 220.134 26.7155C219.66 26.7155 219.205 26.8967 218.86 27.222C218.516 27.5473 218.309 27.992 218.282 28.465V34.623H199.617C198.045 34.6218 196.537 35.244 195.423 36.353C194.873 36.9016 194.436 37.5533 194.138 38.2709C193.839 38.9885 193.686 39.7579 193.685 40.535V43.983C193.685 44.7605 193.838 45.5304 194.137 46.2486C194.435 46.9667 194.871 47.619 195.422 48.168C196.536 49.2781 198.045 49.9009 199.618 49.9H203.742C205.315 49.8993 206.824 50.5226 207.938 51.633C208.489 52.182 208.925 52.8343 209.224 53.5524C209.522 54.2706 209.675 55.0405 209.675 55.818V91.281" stroke="white" stroke-width="2" stroke-linecap="round" stroke-linejoin="round" style="mix-blend-mode:multiply"/>
<path d="M225.016 96.496V81.618C225.017 80.822 225.336 80.058 225.9 79.495C226.465 78.9317 227.23 78.6146 228.028 78.613H243.018C243.818 78.613 244.584 78.93 245.148 79.493C245.714 80.057 246.031 80.821 246.031 81.618V96.496M214.9 34.593V28.435C214.873 27.962 214.666 27.5173 214.322 27.192C213.978 26.8667 213.522 26.6855 213.048 26.6855C212.574 26.6855 212.119 26.8667 211.774 27.192C211.43 27.5173 211.223 27.962 211.196 28.435V34.593H214.9Z" stroke="white" stroke-width="2" stroke-linecap="round" stroke-linejoin="round" style="mix-blend-mode:multiply"/>
<path d="M356.982 113.285H429.919M368.791 123.678H418.11M235.528 104.09C218.446 104.09 202.844 97.704 193.794 87.002C193.51 86.6691 193.295 86.2834 193.16 85.8671C193.026 85.4507 192.975 85.012 193.011 84.5759C193.046 84.1399 193.168 83.7152 193.368 83.3262C193.568 82.9372 193.843 82.5915 194.177 82.309C194.852 81.7373 195.726 81.4566 196.608 81.5282C197.49 81.5998 198.307 82.0179 198.881 82.691C206.567 91.774 220.613 97.415 235.528 97.415C250.444 97.415 264.489 91.774 272.175 82.691C272.603 82.1893 273.169 81.8254 273.803 81.645C274.437 81.4647 275.11 81.476 275.738 81.6776C276.366 81.8791 276.92 82.2619 277.33 82.7777C277.741 83.2934 277.989 83.9191 278.045 84.576C278.117 85.456 277.835 86.329 277.263 87.002C268.212 97.704 252.611 104.09 235.528 104.09Z" stroke="white" stroke-width="2" stroke-linecap="round" stroke-linejoin="round" style="mix-blend-mode:multiply"/>
<path d="M393.451 67.778L394.246 58.864" stroke="#803700" stroke-width="2" stroke-linecap="round" stroke-linejoin="round"/>
<path d="M416.401 8.687L416.025 8.455C414.098 7.43122 411.931 6.94424 409.751 7.045C401.775 7.045 398.207 10.858 396.749 14.549C393.116 23.8701 389.64 33.2514 386.321 42.689H369.166C369.166 47.978 372.921 53.101 377.87 55.382C383.714 58.092 389.812 58.445 396.108 58.159C402.58 57.5284 408.702 54.9285 413.65 50.71C421.007 44.254 423.139 35.064 423.747 26.988C424.354 18.912 422.421 10.89 416.401 8.687Z" fill="#F49709" stroke="#F49709" stroke-width="2" stroke-linecap="round" stroke-linejoin="round"/>
<path d="M413.475 7.509C417.397 8.963 418.457 12.313 418.203 15.619C417.949 18.924 414.966 29.799 413.077 36.068C412.813 36.9477 412.272 37.7186 411.534 38.266C410.795 38.814 409.899 39.1095 408.979 39.109H387.041" stroke="#803700" stroke-width="2" stroke-linecap="round" stroke-linejoin="round"/>
<path d="M452.84 89.034H414.607C414.607 83.338 412.379 77.874 408.412 73.847C404.444 69.819 399.064 67.556 393.453 67.556C387.843 67.556 382.462 69.819 378.495 73.846C374.528 77.874 372.299 83.338 372.299 89.034H334.056" stroke="white" stroke-width="2" stroke-linecap="round" stroke-linejoin="round" style="mix-blend-mode:multiply"/>
<path opacity="0.2" d="M413.481 7.508L413.414 7.387C412.211 7.11446 410.98 6.9849 409.747 7.001C401.771 7.001 398.203 10.814 396.745 14.505C393.74 22.218 390.426 31.032 387.554 39.13H408.985C409.904 39.1303 410.798 38.8349 411.536 38.2874C412.275 37.74 412.817 36.9695 413.083 36.09C414.972 29.82 417.954 19.022 418.209 15.64C418.463 12.257 417.402 8.963 413.481 7.508Z" fill="#803700" stroke="#803700" stroke-width="2" stroke-linecap="round" stroke-linejoin="round"/>
<path fill-rule="evenodd" clip-rule="evenodd" d="M377.689 88.878C377.678 85.765 378.594 82.7192 380.319 80.128C382.046 77.5331 384.504 75.509 387.382 74.312C390.262 73.1135 393.433 72.7944 396.494 73.395C399.555 73.995 402.369 75.489 404.579 77.685C406.788 79.88 408.295 82.6819 408.909 85.735C409.522 88.7866 409.213 91.9517 408.021 94.827C406.829 97.7051 404.808 100.164 402.216 101.892C399.621 103.623 396.572 104.546 393.453 104.546C389.283 104.549 385.281 102.901 382.322 99.963C380.86 98.5101 379.698 96.7834 378.903 94.8814C378.108 92.9794 377.695 90.9394 377.689 88.878Z" fill="white" style="mix-blend-mode:multiply"/>
<path fill-rule="evenodd" clip-rule="evenodd" d="M394.193 79.567L396.27 81.65C396.347 81.7168 396.436 81.7677 396.533 81.7998C396.63 81.8319 396.732 81.8445 396.833 81.837H399.716C399.93 81.8426 400.133 81.9307 400.284 82.0828C400.434 82.2348 400.52 82.4391 400.523 82.653V85.55C400.517 85.6572 400.537 85.7642 400.581 85.8621C400.626 85.9599 400.693 86.0456 400.777 86.112L402.843 88.129C402.986 88.2767 403.066 88.4741 403.066 88.6795C403.066 88.8849 402.986 89.0823 402.843 89.23L400.777 91.324C400.691 91.4038 400.624 91.5014 400.581 91.6099C400.537 91.7183 400.517 91.8351 400.523 91.952V94.839C400.52 95.0539 400.435 95.2595 400.285 95.4132C400.134 95.5669 399.931 95.6571 399.716 95.665H396.833C396.727 95.6582 396.62 95.6766 396.523 95.7186C396.425 95.7607 396.338 95.8252 396.27 95.907L394.193 97.935C394.045 98.0783 393.847 98.1584 393.641 98.1584C393.434 98.1584 393.236 98.0783 393.088 97.935L391.023 95.852C390.867 95.7119 390.668 95.6269 390.459 95.61H387.576C387.36 95.6046 387.154 95.5156 387.001 95.3616C386.849 95.2076 386.762 95.0006 386.759 94.784V91.897C386.763 91.7885 386.742 91.6804 386.698 91.5811C386.654 91.4818 386.588 91.3939 386.505 91.324L384.439 89.319C384.301 89.1687 384.225 88.972 384.225 88.768C384.225 88.564 384.301 88.3673 384.439 88.217L386.505 86.2C386.658 86.025 386.747 85.804 386.759 85.572V82.674C386.762 82.4586 386.85 82.2529 387.002 82.1007C387.155 81.9485 387.361 81.8618 387.576 81.859H390.459C390.566 81.8627 390.673 81.8418 390.77 81.7979C390.868 81.7541 390.955 81.6884 391.023 81.606L393.088 79.534C393.247 79.4095 393.445 79.3446 393.647 79.3506C393.848 79.3567 394.042 79.4332 394.193 79.567Z" fill="#385EF9"/>
<path d="M392.129 92.514C391.907 92.5129 391.693 92.4352 391.522 92.294L389.312 90.399C389.208 90.3243 389.12 90.2286 389.054 90.1181C388.989 90.0075 388.947 89.8846 388.932 89.757C388.918 89.6296 388.93 89.5007 388.968 89.3782C389.006 89.2558 389.068 89.1424 389.152 89.0453C389.236 88.9481 389.338 88.8693 389.454 88.8137C389.569 88.758 389.695 88.7268 389.823 88.722C389.952 88.7174 390.08 88.7397 390.199 88.7874C390.319 88.8351 390.427 88.9071 390.517 88.999L392.019 90.299L396.625 85.187C396.705 85.0958 396.803 85.0214 396.912 84.9681C397.021 84.9148 397.14 84.8836 397.261 84.8765C397.382 84.8693 397.504 84.8863 397.618 84.9263C397.733 84.9664 397.839 85.0289 397.929 85.11C398.109 85.2766 398.217 85.507 398.229 85.752C398.242 85.9971 398.157 86.2372 397.995 86.421L392.792 92.206C392.71 92.3021 392.609 92.3793 392.494 92.4325C392.38 92.4856 392.255 92.5134 392.129 92.514Z" fill="white" style="mix-blend-mode:multiply"/>
<path d="M515.302 29.1897C515.303 27.9405 515.056 26.7035 514.578 25.5496C514.099 24.3957 513.397 23.3477 512.513 22.4657C510.723 20.6822 508.298 19.6817 505.771 19.6837H472.7C470.092 19.6827 467.51 20.1937 465.1 21.1887C462.691 22.1828 460.502 23.6412 458.657 25.4807C456.813 27.3185 455.351 29.5018 454.352 31.9057C453.354 34.3082 452.84 36.8841 452.84 39.4857V66.1527C452.84 69.0427 453.991 71.8157 456.04 73.8597C458.091 75.9045 460.87 77.0524 463.767 77.0517H474.881C477.777 77.0524 480.556 75.9045 482.607 73.8597C483.621 72.8487 484.426 71.6476 484.975 70.3251C485.524 69.0025 485.807 67.5847 485.807 66.1527V54.9297C485.807 54.2977 486.059 53.6917 486.507 53.2447C486.956 52.7975 487.563 52.5465 488.197 52.5467H505.799C508.325 52.5471 510.749 51.5456 512.538 49.7617C513.422 48.8801 514.124 47.8326 514.603 46.6793C515.082 45.526 515.329 44.2895 515.33 43.0407L515.302 29.1897Z" stroke="white" stroke-width="2" stroke-linecap="round" stroke-linejoin="round" style="mix-blend-mode:multiply"/>
<path d="M514.598 25.6137H527.476C529.148 25.615 530.753 26.2792 531.937 27.4607C532.522 28.0449 532.986 28.7387 533.303 29.5024C533.62 30.2661 533.783 31.0848 533.784 31.9117V40.3237C533.782 41.15 533.618 41.9679 533.301 42.7308C532.984 43.4937 532.519 44.1865 531.934 44.7697C530.75 45.95 529.147 46.6134 527.476 46.6147H514.598M524.412 25.6137V46.6137" stroke="white" stroke-width="2" stroke-linecap="round" stroke-linejoin="round" style="mix-blend-mode:multiply"/>
<path d="M533.779 34.3857H558.015C558.475 34.3857 558.916 34.568 559.241 34.8927C559.567 35.2174 559.751 35.6579 559.752 36.1177C559.751 36.5775 559.567 37.018 559.241 37.3427C558.916 37.6674 558.475 37.8497 558.015 37.8497H533.779M493.979 52.5447C493.979 53.6194 493.766 54.6834 493.354 55.6758C492.942 56.6682 492.337 57.5694 491.576 58.3277C490.813 59.0881 489.909 59.6908 488.913 60.1014C487.918 60.5121 486.852 60.7225 485.775 60.7207M472.758 34.3857L477.329 29.8197M481.203 34.3857L485.781 29.8197M489.643 34.3857L494.22 29.8197M476.378 77.0597V79.3597C476.378 80.0777 476.091 80.7667 475.582 81.2747C475.073 81.7827 474.382 82.0677 473.661 82.0677H464.937C464.217 82.0681 463.526 81.7829 463.016 81.2747C462.764 81.0233 462.564 80.7247 462.427 80.3959C462.291 80.0671 462.221 79.7147 462.221 79.3587V76.9487M469.65 82.4637C469.65 90.1957 469.428 93.2517 465.947 97.1797C464.301 99.0437 462.12 100.644 461.411 103C460.599 105.771 462.231 108.882 464.787 110.22C467.344 111.557 470.407 110.961 473.123 109.949C478.222 108.023 483.932 105.099 489.899 110.116" stroke="white" stroke-width="2" stroke-linecap="round" stroke-linejoin="round" style="mix-blend-mode:multiply"/>
</g>
<defs>
<clipPath id="clip0_11168_9221">
<rect width="369" height="131" fill="white" transform="translate(192)"/>
</clipPath>
</defs>
</svg>
