<svg width="17" height="17" viewBox="0 0 17 17" fill="none" xmlns="http://www.w3.org/2000/svg">
<path d="M17 16.1108L12.2512 11.362C13.3923 9.99208 13.9613 8.23495 13.8399 6.45615C13.7185 4.67735 12.9159 3.01385 11.5992 1.81169C10.2826 0.609537 8.55309 -0.0387152 6.77061 0.00179C4.98813 0.0422952 3.28989 0.76844 2.02917 2.02917C0.76844 3.28989 0.0422952 4.98813 0.00179 6.77061C-0.0387152 8.55309 0.609537 10.2826 1.81169 11.5992C3.01385 12.9159 4.67735 13.7185 6.45615 13.8399C8.23495 13.9613 9.99208 13.3923 11.362 12.2512L16.1108 17L17 16.1108ZM1.27987 6.93912C1.27987 5.81983 1.61178 4.72567 2.23362 3.79501C2.85547 2.86435 3.73933 2.13899 4.77342 1.71065C5.80751 1.28232 6.9454 1.17025 8.04319 1.38861C9.14098 1.60697 10.1494 2.14596 10.9408 2.93743C11.7323 3.72889 12.2713 4.73727 12.4896 5.83506C12.708 6.93285 12.5959 8.07073 12.1676 9.10483C11.7393 10.1389 11.0139 11.0228 10.0832 11.6446C9.15258 12.2665 8.05842 12.5984 6.93912 12.5984C5.43871 12.5967 4.00022 11.9999 2.93926 10.939C1.87831 9.87803 1.28153 8.43954 1.27987 6.93912Z" fill="black"/>
</svg>
