<svg width="48" height="48" viewBox="0 0 48 48" fill="none" xmlns="http://www.w3.org/2000/svg">
<path d="M20 30C20 29.7348 20.1054 29.4804 20.2929 29.2929C20.4804 29.1054 20.7348 29 21 29H27C27.2652 29 27.5196 29.1054 27.7071 29.2929C27.8946 29.4804 28 29.7348 28 30C28 30.2652 27.8946 30.5196 27.7071 30.7071C27.5196 30.8946 27.2652 31 27 31H21C20.7348 31 20.4804 30.8946 20.2929 30.7071C20.1054 30.5196 20 30.2652 20 30ZM23 23C22.7348 23 22.4804 23.1054 22.2929 23.2929C22.1054 23.4804 22 23.7348 22 24C22 24.2652 22.1054 24.5196 22.2929 24.7071C22.4804 24.8946 22.7348 25 23 25H25C25.2652 25 25.5196 24.8946 25.7071 24.7071C25.8946 24.5196 26 24.2652 26 24C26 23.7348 25.8946 23.4804 25.7071 23.2929C25.5196 23.1054 25.2652 23 25 23H23Z" fill="#253238"/>
<path fill-rule="evenodd" clip-rule="evenodd" d="M38.175 18.239L39.707 16.707C39.8892 16.5184 39.99 16.2658 39.9877 16.0036C39.9854 15.7414 39.8802 15.4906 39.6948 15.3052C39.5094 15.1198 39.2586 15.0146 38.9964 15.0123C38.7342 15.01 38.4816 15.1108 38.293 15.293L36.633 16.953L34.596 12.296C34.1674 11.316 33.4623 10.4823 32.5672 9.89692C31.672 9.31152 30.6256 8.99982 29.556 9H18.444C17.3746 9.00002 16.3284 9.3118 15.4334 9.8972C14.5384 10.4826 13.8335 11.3162 13.405 12.296L11.368 16.953L9.708 15.293C9.5194 15.1108 9.2668 15.01 9.0046 15.0123C8.7424 15.0146 8.49159 15.1198 8.30618 15.3052C8.12077 15.4906 8.0156 15.7414 8.01333 16.0036C8.01105 16.2658 8.11184 16.5184 8.294 16.707L9.826 18.239C9.28435 18.4693 8.82242 18.8539 8.49773 19.3449C8.17305 19.8358 7.99995 20.4114 8 21V35C8 35.7956 8.31607 36.5587 8.87868 37.1213C9.44129 37.6839 10.2044 38 11 38H13C13.7956 38 14.5587 37.6839 15.1213 37.1213C15.6839 36.5587 16 35.7956 16 35V33.666C21.324 34.1112 26.676 34.1112 32 33.666V35C32 35.7956 32.3161 36.5587 32.8787 37.1213C33.4413 37.6839 34.2044 38 35 38H37C37.7956 38 38.5587 37.6839 39.1213 37.1213C39.6839 36.5587 40 35.7956 40 35V21C40.0001 20.4115 39.8272 19.836 39.5027 19.3451C39.1782 18.8541 38.7165 18.4695 38.175 18.239ZM18.443 11C17.7625 10.9999 17.0966 11.1982 16.527 11.5707C15.9575 11.9431 15.5088 12.4735 15.236 13.097L13.143 17.882L18.19 16.023C21.9431 14.6583 26.0569 14.6583 29.81 16.023L29.813 16.025L34.857 17.882L32.764 13.097C32.4911 12.4734 32.0423 11.9428 31.4725 11.5704C30.9028 11.1979 30.2367 10.9997 29.556 11H18.443ZM38 27.297C33.354 27.842 28.677 28.077 24 28C19.322 28.07 14.645 27.828 10 27.277V30.164C10 30.4119 10.0921 30.651 10.2584 30.8348C10.4247 31.0187 10.6533 31.1342 10.9 31.159L14.647 31.534C20.867 32.156 27.133 32.156 33.353 31.534L37.099 31.159C37.3458 31.1344 37.5747 31.019 37.7413 30.8351C37.9078 30.6513 38 30.4121 38 30.164V27.297ZM38 32.993C37.7731 33.0729 37.5374 33.1253 37.298 33.149L34 33.479V35C34 35.2652 34.1054 35.5196 34.2929 35.7071C34.4804 35.8946 34.7348 36 35 36H37C37.2652 36 37.5196 35.8946 37.7071 35.7071C37.8946 35.5196 38 35.2652 38 35V32.993ZM10 32.993V35C10 35.2652 10.1054 35.5196 10.2929 35.7071C10.4804 35.8946 10.7348 36 11 36H13C13.2652 36 13.5196 35.8946 13.7071 35.7071C13.8946 35.5196 14 35.2652 14 35V33.479L10.701 33.149C10.4619 33.1252 10.2266 33.0729 10 32.993ZM10 25.27C10.04 25.27 10.079 25.272 10.119 25.277C12.4041 25.5508 14.6977 25.7483 16.996 25.869C16.946 24.998 16.379 24.478 15.593 24.127C15.2215 23.9655 14.8331 23.8461 14.435 23.771C14.2755 23.74 14.1146 23.7159 13.953 23.699L13.932 23.698H13.925C12.6132 23.6011 11.3044 23.4677 10 23.298V25.27ZM10 21.29C10.043 21.29 10.086 21.293 10.129 21.298C11.116 21.427 12.357 21.574 14.073 21.703H14.091L14.137 21.708L14.293 21.725C14.422 21.74 14.602 21.766 14.815 21.808C15.238 21.89 15.817 22.037 16.407 22.3C17.574 22.82 18.98 23.905 19 25.955C20.66 26.01 22.323 26.025 23.985 26H24.016C25.678 26.028 27.34 26.015 29 25.962C29.017 23.907 30.425 22.822 31.593 22.3C32.183 22.037 32.762 21.89 33.185 21.808C33.4094 21.7645 33.6356 21.7312 33.863 21.708L33.909 21.704L33.924 21.703H33.926C35.646 21.574 36.935 21.426 37.864 21.299C37.91 21.293 37.955 21.289 38 21.289V21C38 20.7348 37.8946 20.4804 37.7071 20.2929C37.5196 20.1054 37.2652 20 37 20H35.356C35.0025 19.9999 34.6517 19.9372 34.32 19.815L29.126 17.903H29.124C25.8139 16.6999 22.1861 16.6999 18.876 17.903H18.874L13.68 19.815C13.3479 19.9373 12.9969 20 12.643 20H11C10.7348 20 10.4804 20.1054 10.2929 20.2929C10.1054 20.4804 10 20.7348 10 21V21.29ZM38 23.299C37.042 23.427 35.754 23.572 34.075 23.697H34.068L34.048 23.699C33.8864 23.716 33.7255 23.74 33.566 23.771C33.1676 23.846 32.7788 23.9654 32.407 24.127C31.617 24.479 31.051 25.002 31.003 25.879C33.301 25.762 35.596 25.568 37.883 25.297C37.922 25.292 37.961 25.29 38 25.29V23.299Z" fill="#253238"/>
</svg>
