<svg width="48" height="48" viewBox="0 0 48 48" fill="none" xmlns="http://www.w3.org/2000/svg">
<path fill-rule="evenodd" clip-rule="evenodd" d="M24 24C23.2044 24 22.4413 24.3161 21.8787 24.8787C21.3161 25.4413 21 26.2044 21 27C21 27.7956 21.3161 28.5587 21.8787 29.1213C22.4413 29.6839 23.2044 30 24 30C24.7956 30 25.5587 29.6839 26.1213 29.1213C26.6839 28.5587 27 27.7956 27 27C27 26.2044 26.6839 25.4413 26.1213 24.8787C25.5587 24.3161 24.7956 24 24 24ZM23 27C23 26.7348 23.1054 26.4804 23.2929 26.2929C23.4804 26.1054 23.7348 26 24 26C24.2652 26 24.5196 26.1054 24.7071 26.2929C24.8946 26.4804 25 26.7348 25 27C25 27.2652 24.8946 27.5196 24.7071 27.7071C24.5196 27.8946 24.2652 28 24 28C23.7348 28 23.4804 27.8946 23.2929 27.7071C23.1054 27.5196 23 27.2652 23 27Z" fill="#253238"/>
<path fill-rule="evenodd" clip-rule="evenodd" d="M24.0019 10C24.1771 10.0004 24.3491 10.0467 24.5008 10.1345C24.6524 10.2222 24.7783 10.3483 24.8659 10.5L39.8659 36.5C39.9537 36.652 39.9999 36.8245 39.9999 37C39.9999 37.1755 39.9537 37.348 39.8659 37.5C39.7782 37.652 39.6519 37.7782 39.4999 37.866C39.3479 37.9538 39.1755 38 38.9999 38H8.99992C8.8248 37.9999 8.65277 37.9539 8.50103 37.8665C8.3493 37.7791 8.22318 37.6533 8.13529 37.5019C8.04741 37.3504 8.00084 37.1785 8.00025 37.0034C7.99966 36.8283 8.04506 36.6561 8.13192 36.504L15.6359 23.384L23.1359 10.497C23.2241 10.3455 23.3505 10.2199 23.5025 10.1327C23.6544 10.0455 23.8267 9.9997 24.0019 10ZM10.7239 36L14.8239 28.832C15.2889 30.116 16.2239 31.22 17.4129 32.06C19.1389 33.278 21.4699 34 23.9999 34C26.5299 34 28.8609 33.278 30.5869 32.06C31.7619 31.23 32.6879 30.142 33.1589 28.878L37.2699 36H10.7229H10.7239ZM23.9959 12.995L28.5179 20.833C27.1649 20.296 25.6229 20 23.9999 20C22.3519 20 20.7879 20.306 19.4199 20.857L23.9959 12.995ZM18.5659 23.575C17.2129 24.529 16.4999 25.755 16.4999 27C16.4999 28.245 17.2129 29.47 18.5659 30.426C19.9159 31.379 21.8349 32 23.9999 32C26.1649 32 28.0829 31.379 29.4339 30.426C30.7869 29.47 31.4999 28.245 31.4999 27C31.4999 25.755 30.7869 24.53 29.4339 23.574C28.0839 22.621 26.1649 22 23.9999 22C21.8349 22 19.9169 22.621 18.5659 23.574V23.575Z" fill="#253238"/>
<path d="M34 19.01C33.7374 19.01 33.4856 19.1143 33.3 19.3C33.1143 19.4856 33.01 19.7374 33.01 20C33.01 20.2626 33.1143 20.5144 33.3 20.7C33.4856 20.8857 33.7374 20.99 34 20.99H39C39.2626 20.99 39.5144 20.8857 39.7 20.7C39.8857 20.5144 39.99 20.2626 39.99 20C39.99 19.7374 39.8857 19.4856 39.7 19.3C39.5144 19.1143 39.2626 19.01 39 19.01H34ZM37.792 10.406C37.9495 10.6161 38.0172 10.8801 37.9801 11.14C37.9429 11.3999 37.8041 11.6345 37.594 11.792L33.594 14.792C33.384 14.9496 33.1199 15.0172 32.86 14.9801C32.6001 14.9429 32.3655 14.8041 32.208 14.594C32.0505 14.384 31.9828 14.1199 32.02 13.86C32.0571 13.6001 32.196 13.3656 32.406 13.208L36.406 10.208C36.6161 10.0505 36.8801 9.98283 37.14 10.02C37.3999 10.0571 37.6345 10.196 37.792 10.406ZM9.00001 19.01C8.73745 19.01 8.48563 19.1143 8.29997 19.3C8.11431 19.4856 8.01001 19.7374 8.01001 20C8.01001 20.2626 8.11431 20.5144 8.29997 20.7C8.48563 20.8857 8.73745 20.99 9.00001 20.99H14C14.2626 20.99 14.5144 20.8857 14.7 20.7C14.8857 20.5144 14.99 20.2626 14.99 20C14.99 19.7374 14.8857 19.4856 14.7 19.3C14.5144 19.1143 14.2626 19.01 14 19.01H9.00001ZM11.208 10.406C11.3655 10.196 11.6001 10.0571 11.86 10.02C12.1199 9.98283 12.384 10.0505 12.594 10.208L16.594 13.208C16.8041 13.3656 16.9429 13.6001 16.9801 13.86C17.0172 14.1199 16.9495 14.384 16.792 14.594C16.6345 14.8041 16.3999 14.9429 16.14 14.9801C15.8801 15.0172 15.6161 14.9496 15.406 14.792L11.406 11.792C11.196 11.6345 11.0571 11.3999 11.02 11.14C10.9828 10.8801 11.0505 10.6161 11.208 10.406Z" fill="#253238"/>
</svg>
