<svg width="822" height="37" viewBox="0 0 822 37" fill="none" xmlns="http://www.w3.org/2000/svg">
<path fill-rule="evenodd" clip-rule="evenodd" d="M695 33.5C703.284 33.5 710 26.7842 710 18.5001C710 10.2158 703.284 3.5 695 3.5C686.716 3.5 680 10.2158 680 18.5001C680 26.7842 686.716 33.5 695 33.5ZM698.501 9.37089H697.589C696.779 9.37089 696.112 9.45764 695.387 9.73482C694.336 10.1481 692.583 11.2851 692.583 14.4895V15.3246C692.583 15.5572 692.394 15.7459 692.161 15.7459H692.094C691.298 15.7459 690.587 16.328 690.511 17.1207C690.424 18.0298 691.137 18.7948 692.028 18.7948H692.158C692.392 18.7948 692.583 18.9852 692.583 19.22V27.2767C692.583 28.0727 693.164 28.7839 693.957 28.8596C694.866 28.9464 695.632 28.2337 695.632 27.3423V19.3398C695.632 19.0387 695.876 18.7948 696.176 18.7948H696.397C697.194 18.7948 697.905 18.2128 697.98 17.42C698.067 16.5109 697.354 15.7459 696.463 15.7459H696.174C695.874 15.7459 695.632 15.5031 695.632 15.2035V14.4895C695.632 12.8844 696.238 12.6762 696.489 12.5775C696.852 12.4392 697.151 12.4198 697.589 12.4198H698.567C699.458 12.4198 700.171 11.6548 700.084 10.7457C700.008 9.95295 699.297 9.37089 698.501 9.37089Z" fill="#90A4AE"/>
<path fill-rule="evenodd" clip-rule="evenodd" d="M425 18.5C425 26.7843 418.284 33.5 410 33.5C401.716 33.5 395 26.7843 395 18.5C395 10.2157 401.716 3.5 410 3.5C418.284 3.5 425 10.2157 425 18.5ZM416.281 12.9516L416.947 12.9472C417.74 12.9472 418.376 13.5833 418.376 14.3647C418.376 14.5121 418.354 14.6572 418.309 14.7959C418.131 15.4209 418.048 15.6794 417.884 16.1909L417.793 16.4755C417.794 16.5331 417.794 16.5904 417.794 16.6472C417.794 18.9668 416.9 21.3123 415.34 23.0819C414.078 24.5132 411.818 26.2191 408.22 26.2191C406.722 26.2191 405.582 25.8479 404.891 25.5366C404.392 25.3123 403.067 24.7161 403.067 23.5719C403.067 22.7803 403.714 22.1362 404.509 22.1362C404.615 22.1362 404.72 22.1327 404.823 22.1253C404.371 21.6961 403.97 21.2081 403.645 20.6849C402.717 19.1966 401.942 16.7191 403.514 13.3711C403.723 12.9268 404.138 12.6259 404.626 12.5663C405.103 12.509 405.59 12.701 405.897 13.0774C406.788 14.1702 407.989 14.949 409.333 15.3192C409.789 13.4423 411.502 12.0309 413.5 12.0309C414.466 12.0309 415.398 12.3554 416.154 12.9506C416.193 12.9514 416.232 12.9516 416.281 12.9516Z" fill="#90A4AE"/>
<path fill-rule="evenodd" clip-rule="evenodd" d="M425 18.5C425 26.7843 418.284 33.5 410 33.5C401.716 33.5 395 26.7843 395 18.5C395 10.2157 401.716 3.5 410 3.5C418.284 3.5 425 10.2157 425 18.5ZM416.281 12.9516L416.947 12.9472C417.74 12.9472 418.376 13.5833 418.376 14.3647C418.376 14.5121 418.354 14.6572 418.309 14.7959C418.131 15.4209 418.048 15.6794 417.884 16.1909L417.793 16.4755C417.794 16.5331 417.794 16.5904 417.794 16.6472C417.794 18.9668 416.9 21.3123 415.34 23.0819C414.078 24.5132 411.818 26.2191 408.22 26.2191C406.722 26.2191 405.582 25.8479 404.891 25.5366C404.392 25.3123 403.067 24.7161 403.067 23.5719C403.067 22.7803 403.714 22.1362 404.509 22.1362C404.615 22.1362 404.72 22.1327 404.823 22.1253C404.371 21.6961 403.97 21.2081 403.645 20.6849C402.717 19.1966 401.942 16.7191 403.514 13.3711C403.723 12.9268 404.138 12.6259 404.626 12.5663C405.103 12.509 405.59 12.701 405.897 13.0774C406.788 14.1702 407.989 14.949 409.333 15.3192C409.789 13.4423 411.502 12.0309 413.5 12.0309C414.466 12.0309 415.398 12.3554 416.154 12.9506C416.193 12.9514 416.232 12.9516 416.281 12.9516Z" fill="#90A4AE"/>
<path d="M416.947 12.9472V9.44715H416.935L416.923 9.44723L416.947 12.9472ZM416.281 12.9516V16.4516H416.293L416.305 16.4515L416.281 12.9516ZM418.309 14.7959L414.976 13.7283L414.959 13.7808L414.944 13.8338L418.309 14.7959ZM417.884 16.1909L414.551 15.1208L414.549 15.1268L417.884 16.1909ZM417.793 16.4755L414.459 15.4113L414.284 15.96L414.293 16.5358L417.793 16.4755ZM404.891 25.5366L406.328 22.3451L406.326 22.3444L404.891 25.5366ZM404.823 22.1253L405.074 25.6163L412.987 25.0486L407.233 19.5869L404.823 22.1253ZM403.645 20.6849L406.616 18.8358L406.615 18.8343L403.645 20.6849ZM403.514 13.3711L406.683 14.8587L406.683 14.8576L403.514 13.3711ZM404.626 12.5663L404.208 9.09132L404.201 9.09216L404.626 12.5663ZM405.897 13.0774L408.61 10.8656L408.608 10.8631L405.897 13.0774ZM409.333 15.3192L408.404 18.6936L411.883 19.6514L412.735 16.1448L409.333 15.3192ZM416.154 12.9506L413.988 15.7001L414.912 16.4277L416.087 16.45L416.154 12.9506ZM410 37C420.217 37 428.5 28.7173 428.5 18.5H421.5C421.5 24.8513 416.351 30 410 30V37ZM391.5 18.5C391.5 28.7173 399.783 37 410 37V30C403.649 30 398.5 24.8513 398.5 18.5H391.5ZM410 0C399.783 0 391.5 8.28273 391.5 18.5H398.5C398.5 12.1487 403.649 7 410 7V0ZM428.5 18.5C428.5 8.28273 420.217 0 410 0V7C416.351 7 421.5 12.1487 421.5 18.5H428.5ZM416.923 9.44723L416.258 9.45169L416.305 16.4515L416.97 16.4471L416.923 9.44723ZM421.876 14.3647C421.876 11.6308 419.654 9.44715 416.947 9.44715V16.4471C415.827 16.4471 414.876 15.5357 414.876 14.3647H421.876ZM421.642 15.8635C421.799 15.3763 421.876 14.8708 421.876 14.3647H414.876C414.876 14.1534 414.909 13.9382 414.976 13.7283L421.642 15.8635ZM421.216 17.261C421.386 16.7314 421.481 16.4334 421.674 15.758L414.944 13.8338C414.78 14.4083 414.71 14.6274 414.551 15.1208L421.216 17.261ZM421.127 17.5397L421.218 17.2551L414.549 15.1268L414.459 15.4113L421.127 17.5397ZM421.294 16.6472C421.294 16.57 421.294 16.4926 421.292 16.4152L414.293 16.5358C414.294 16.5736 414.294 16.6108 414.294 16.6472H421.294ZM417.965 25.3968C420.078 22.9997 421.294 19.8347 421.294 16.6472H414.294C414.294 18.099 413.721 19.6252 412.714 20.7674L417.965 25.3968ZM408.22 29.7191C413.076 29.7191 416.227 27.368 417.965 25.3968L412.714 20.7674C411.928 21.6587 410.56 22.7191 408.22 22.7191V29.7191ZM403.454 28.728C404.506 29.2016 406.135 29.7191 408.22 29.7191V22.7191C407.308 22.7191 406.659 22.4942 406.328 22.3451L403.454 28.728ZM399.567 23.5719C399.567 25.6422 400.795 26.9735 401.583 27.6147C402.374 28.2574 403.221 28.6234 403.455 28.7287L406.326 22.3444C406.203 22.2893 406.132 22.2561 406.063 22.2185C405.991 22.1797 405.977 22.165 406 22.1838C406.019 22.199 406.149 22.3059 406.284 22.5309C406.435 22.7829 406.567 23.146 406.567 23.5719H399.567ZM404.509 18.6362C401.797 18.6362 399.567 20.8316 399.567 23.5719H406.567C406.567 24.7289 405.631 25.6362 404.509 25.6362V18.6362ZM404.573 18.6343C404.559 18.6352 404.538 18.6362 404.509 18.6362V25.6362C404.691 25.6362 404.88 25.6302 405.074 25.6163L404.573 18.6343ZM400.673 22.534C401.162 23.3197 401.754 24.0376 402.414 24.6637L407.233 19.5869C406.988 19.3546 406.778 19.0965 406.616 18.8358L400.673 22.534ZM400.346 11.8836C398.197 16.4601 399.215 20.1936 400.674 22.5354L406.615 18.8343C406.381 18.4584 406.181 17.9839 406.127 17.4033C406.076 16.8424 406.143 16.0082 406.683 14.8587L400.346 11.8836ZM404.201 9.09216C402.518 9.2978 401.066 10.3496 400.346 11.8847L406.683 14.8576C406.38 15.504 405.759 15.9539 405.05 16.0405L404.201 9.09216ZM408.608 10.8631C407.533 9.54727 405.86 8.89283 404.208 9.09132L405.043 16.0413C404.345 16.1252 403.647 15.8548 403.187 15.2917L408.608 10.8631ZM410.262 11.9447C409.617 11.7671 409.04 11.3939 408.61 10.8656L403.185 15.2892C404.536 16.9466 406.36 18.1309 408.404 18.6936L410.262 11.9447ZM413.5 8.53094C409.84 8.53094 406.757 11.0938 405.932 14.4935L412.735 16.1448C412.772 15.9886 412.87 15.8277 413.024 15.7052C413.172 15.5865 413.337 15.5309 413.5 15.5309V8.53094ZM418.319 10.2011C416.948 9.12087 415.253 8.53094 413.5 8.53094V15.5309C413.679 15.5309 413.848 15.59 413.988 15.7001L418.319 10.2011ZM416.281 9.45161C416.243 9.45161 416.229 9.45141 416.22 9.45125L416.087 16.45C416.157 16.4513 416.221 16.4516 416.281 16.4516V9.45161Z" fill="#90A4AE"/>
<path d="M451 18.1197V18.9308C451.209 26.6875 457.458 32.917 464.891 33.5H467.179C474.657 32.9106 480.797 26.6242 481 18.9182V18.1197C480.797 10.2742 474.441 3.91171 466.786 3.51881C458.548 3.10055 451.228 9.71023 451 18.1197Z" fill="#90A4AE"/>
<path fill-rule="evenodd" clip-rule="evenodd" d="M466.032 11.0349C468.421 11.0349 468.706 11.0412 469.65 11.0856C470.525 11.1236 470.994 11.2757 471.311 11.3961C471.729 11.5609 472.027 11.7573 472.337 12.0742C472.648 12.391 472.844 12.6952 473.009 13.1198C473.129 13.443 473.275 13.9246 473.32 14.8118C473.364 15.7751 473.37 16.0603 473.37 18.4937C473.37 20.9272 473.364 21.2124 473.32 22.1756C473.282 23.0628 473.136 23.5445 473.009 23.8677C472.844 24.2923 472.654 24.5964 472.337 24.9133C472.027 25.2302 471.729 25.4266 471.311 25.5914C470.994 25.7181 470.519 25.8639 469.65 25.9019C468.706 25.9463 468.421 25.9526 466.032 25.9526C463.643 25.9526 463.357 25.9463 462.413 25.9019C461.539 25.8639 461.07 25.7118 460.753 25.5914C460.335 25.4266 460.037 25.2302 459.726 24.9133C459.416 24.5964 459.219 24.2923 459.055 23.8677C458.934 23.5445 458.788 23.0628 458.744 22.1756C458.7 21.2124 458.693 20.9272 458.693 18.4937C458.693 16.0603 458.7 15.7751 458.744 14.8118C458.782 13.9246 458.928 13.443 459.055 13.1198C459.219 12.6952 459.409 12.391 459.726 12.0742C460.037 11.7573 460.335 11.5609 460.753 11.3961C461.07 11.2694 461.545 11.1236 462.413 11.0856L462.448 11.0842C463.365 11.0472 463.672 11.0349 466.032 11.0349ZM466.032 9.39355C463.598 9.39355 463.294 9.40623 462.344 9.45059C461.393 9.49495 460.74 9.64704 460.17 9.87518C459.581 10.1097 459.08 10.4202 458.586 10.9271C458.085 11.4341 457.781 11.9411 457.553 12.5431C457.331 13.1198 457.179 13.7852 457.134 14.7548C457.09 15.7244 457.084 16.0349 457.084 18.5064C457.084 20.9653 457.096 21.2852 457.134 22.2433L457.134 22.258C457.179 23.2276 457.331 23.8867 457.553 24.4697C457.781 25.0654 458.085 25.5787 458.586 26.0857C459.086 26.5927 459.581 26.9032 460.17 27.1377C460.74 27.3658 461.393 27.5179 462.344 27.5622C463.3 27.6066 463.605 27.6193 466.032 27.6193C468.459 27.6193 468.77 27.6066 469.72 27.5622C470.671 27.5179 471.323 27.3658 471.894 27.1377C472.483 26.9032 472.984 26.5927 473.478 26.0857C473.979 25.5787 474.283 25.0717 474.511 24.4697C474.733 23.893 474.885 23.2276 474.929 22.258C474.974 21.2884 474.98 20.9779 474.98 18.5064C474.98 16.0475 474.967 15.7276 474.93 14.7696L474.929 14.7548C474.885 13.7852 474.733 13.1262 474.511 12.5431C474.283 11.9474 473.979 11.4341 473.478 10.9271C472.977 10.4202 472.483 10.1097 471.894 9.87518C471.323 9.64704 470.671 9.49495 469.72 9.45059C468.77 9.40623 468.459 9.39355 466.032 9.39355ZM466.032 13.823C463.491 13.823 461.437 15.9143 461.437 18.4999C461.437 21.0854 463.497 23.1767 466.032 23.1767C468.567 23.1767 470.626 21.0854 470.626 18.4999C470.626 15.9143 468.567 13.823 466.032 13.823ZM466.032 21.5354C464.384 21.5354 463.047 20.1792 463.047 18.4999C463.047 16.8205 464.384 15.4644 466.032 15.4644C467.68 15.4644 469.017 16.8205 469.017 18.4999C469.017 20.1792 467.68 21.5354 466.032 21.5354ZM471.881 13.6393C471.881 14.2413 471.402 14.7293 470.81 14.7293C470.219 14.7293 469.739 14.2413 469.739 13.6393C469.739 13.0373 470.219 12.5493 470.81 12.5493C471.402 12.5493 471.881 13.0373 471.881 13.6393Z" fill="white" style="mix-blend-mode:multiply"/>
</svg>
