<svg width="18" height="18" viewBox="0 0 18 18" fill="none" xmlns="http://www.w3.org/2000/svg">
<path d="M9 3.85714C8.36428 3.85714 7.74283 4.04566 7.21424 4.39885C6.68565 4.75204 6.27367 5.25404 6.03039 5.84137C5.78711 6.42871 5.72345 7.07499 5.84748 7.6985C5.9715 8.32202 6.27763 8.89475 6.72716 9.34427C7.17668 9.7938 7.74942 10.0999 8.37293 10.224C8.99644 10.348 9.64272 10.2843 10.2301 10.041C10.8174 9.79776 11.3194 9.38578 11.6726 8.85719C12.0258 8.3286 12.2143 7.70715 12.2143 7.07143C12.2143 6.21895 11.8756 5.40138 11.2728 4.79859C10.67 4.19579 9.85248 3.85714 9 3.85714ZM9 9C8.61857 9 8.2457 8.88689 7.92854 8.67498C7.61139 8.46306 7.3642 8.16186 7.21823 7.80946C7.07226 7.45706 7.03407 7.06929 7.10849 6.69518C7.1829 6.32108 7.36658 5.97744 7.6363 5.70772C7.90601 5.43801 8.24965 5.25433 8.62376 5.17991C8.99786 5.1055 9.38563 5.14369 9.73803 5.28966C10.0904 5.43563 10.3916 5.68282 10.6036 5.99997C10.8155 6.31712 10.9286 6.68999 10.9286 7.07143C10.928 7.58274 10.7246 8.07294 10.3631 8.4345C10.0015 8.79605 9.51131 8.99942 9 9Z" fill="#161616"/>
<path d="M9 0C7.21997 0 5.47991 0.527841 3.99987 1.51677C2.51983 2.50571 1.36628 3.91131 0.685088 5.55585C0.00389955 7.20038 -0.17433 9.00998 0.172937 10.7558C0.520203 12.5016 1.37737 14.1053 2.63604 15.364C3.89472 16.6226 5.49836 17.4798 7.24419 17.8271C8.99002 18.1743 10.7996 17.9961 12.4442 17.3149C14.0887 16.6337 15.4943 15.4802 16.4832 14.0001C17.4722 12.5201 18 10.78 18 9C17.9973 6.61388 17.0482 4.32625 15.361 2.63901C13.6738 0.951763 11.3861 0.00268836 9 0ZM5.14286 15.6706V14.7857C5.14342 14.2744 5.34679 13.7842 5.70835 13.4226C6.0699 13.0611 6.56012 12.8577 7.07143 12.8571H10.9286C11.4399 12.8577 11.9301 13.0611 12.2917 13.4226C12.6532 13.7842 12.8566 14.2744 12.8571 14.7857V15.6706C11.6866 16.3541 10.3555 16.7143 9 16.7143C7.64453 16.7143 6.31339 16.3541 5.14286 15.6706ZM14.138 14.738C14.1253 13.8947 13.7817 13.0903 13.1813 12.4979C12.581 11.9056 11.7719 11.5729 10.9286 11.5714H7.07143C6.22807 11.5729 5.41903 11.9056 4.81868 12.4979C4.21834 13.0903 3.87475 13.8947 3.86197 14.738C2.69619 13.6971 1.87408 12.3266 1.5045 10.808C1.13493 9.28945 1.23532 7.69445 1.79238 6.23421C2.34944 4.77397 3.33689 3.51737 4.62399 2.63081C5.91109 1.74424 7.43712 1.26953 9 1.26953C10.5629 1.26953 12.0889 1.74424 13.376 2.63081C14.6631 3.51737 15.6506 4.77397 16.2076 6.23421C16.7647 7.69445 16.8651 9.28945 16.4955 10.808C16.1259 12.3266 15.3038 13.6971 14.138 14.738Z" fill="black"/>
</svg>
