<svg width="14" height="14" viewBox="0 0 14 14" fill="none" xmlns="http://www.w3.org/2000/svg">
<path d="M14 13.2677L10.0892 9.35694C11.029 8.22876 11.4976 6.78171 11.3976 5.31682C11.2976 3.85193 10.6366 2.48199 9.55231 1.49198C8.46797 0.501971 7.0437 -0.031883 5.57579 0.00147411C4.10787 0.0348313 2.70932 0.632831 1.67107 1.67107C0.632831 2.70932 0.0348313 4.10787 0.00147411 5.57579C-0.031883 7.0437 0.501971 8.46797 1.49198 9.55231C2.48199 10.6366 3.85193 11.2976 5.31682 11.3976C6.78171 11.4976 8.22876 11.029 9.35694 10.0892L13.2677 14L14 13.2677ZM1.05401 5.71456C1.05401 4.79279 1.32734 3.89172 1.83945 3.1253C2.35156 2.35887 3.07944 1.76152 3.93105 1.40877C4.78265 1.05602 5.71973 0.96373 6.62379 1.14356C7.52785 1.32339 8.35828 1.76726 9.01007 2.41905C9.66186 3.07084 10.1057 3.90127 10.2856 4.80533C10.4654 5.70939 10.3731 6.64648 10.0204 7.49808C9.66761 8.34969 9.07025 9.07756 8.30383 9.58967C7.5374 10.1018 6.63633 10.3751 5.71456 10.3751C4.47893 10.3737 3.29429 9.88229 2.42057 9.00856C1.54684 8.13483 1.05538 6.9502 1.05401 5.71456Z" fill="#525252"/>
</svg>
