<svg width="14" height="17" viewBox="0 0 14 17" fill="none" xmlns="http://www.w3.org/2000/svg">
<g clip-path="url(#clip0_11168_10625)">
<path d="M13.1161 12.553C13.0731 12.675 13.0301 12.807 12.9821 12.937C12.5801 14.025 11.9701 14.992 11.2301 15.877C11.0871 16.05 10.9201 16.206 10.7481 16.35C10.4206 16.6409 10.0027 16.8098 9.56508 16.828C9.22508 16.838 8.89908 16.777 8.58508 16.648C8.35708 16.556 8.13308 16.452 7.90208 16.368C7.15208 16.096 6.40708 16.132 5.67008 16.423C5.40408 16.528 5.14208 16.644 4.87108 16.736C4.55708 16.841 4.23108 16.883 3.90108 16.821C3.61732 16.7613 3.35111 16.6371 3.12308 16.458C2.83762 16.2381 2.58034 15.9838 2.35708 15.701C1.28007 14.4019 0.537152 12.859 0.193076 11.207C0.035361 10.4907 -0.025183 9.75644 0.0130763 9.02399C0.0650763 8.14099 0.270076 7.30099 0.742076 6.54399C1.33408 5.59099 2.16908 4.96699 3.26808 4.70999C3.91286 4.56033 4.58808 4.6127 5.20208 4.85999C5.53308 4.98799 5.86608 5.11299 6.19908 5.23799C6.50508 5.35299 6.81108 5.35299 7.11808 5.23599C7.45808 5.10599 7.79808 4.97599 8.13808 4.84999C8.48808 4.72299 8.84408 4.61899 9.21508 4.58999C9.76459 4.54624 10.3172 4.61532 10.8391 4.79299C11.5861 5.04299 12.1941 5.48499 12.6531 6.12899L12.6881 6.17999C11.5311 6.98699 10.8721 8.05299 10.9681 9.49699C11.0641 10.941 11.8411 11.918 13.1161 12.553ZM6.62208 4.40999C6.96408 4.41999 7.29208 4.35399 7.60908 4.22799C9.05008 3.65499 9.80508 2.12999 9.78208 0.962992C9.78008 0.869992 9.77408 0.774992 9.77008 0.666992C9.62108 0.688992 9.48608 0.698992 9.35608 0.731992C8.30408 0.989992 7.49308 1.57699 6.96108 2.52899C6.64908 3.08599 6.47608 3.67699 6.52908 4.32399C6.53308 4.39199 6.55808 4.40899 6.62208 4.40999Z" fill="white" style="mix-blend-mode:multiply"/>
</g>
<defs>
<clipPath id="clip0_11168_10625">
<rect width="14" height="17" fill="white"/>
</clipPath>
</defs>
</svg>
