<svg width="16" height="16" viewBox="0 0 16 16" fill="none" xmlns="http://www.w3.org/2000/svg">
<g clip-path="url(#clip0_11168_10655)">
<path d="M0.117188 1.723V14.883C0.117188 14.91 0.127188 14.938 0.143188 14.963C0.161024 14.9867 0.185332 15.0048 0.213188 15.015C0.24155 15.0261 0.272411 15.0291 0.302394 15.0238C0.332377 15.0185 0.360327 15.0051 0.383187 14.985L7.76119 8.303L0.383187 1.621C0.366184 1.60624 0.346373 1.59508 0.324945 1.58818C0.303517 1.58127 0.280915 1.57878 0.258497 1.58083C0.236079 1.58289 0.214308 1.58945 0.194492 1.60013C0.174677 1.61082 0.157225 1.6254 0.143188 1.643C0.126407 1.66631 0.117317 1.69427 0.117188 1.723ZM10.8552 5.558L1.60319 0.823995L1.59819 0.820995C1.43819 0.740995 1.28819 0.940995 1.41819 1.058L8.67019 7.498L10.8552 5.558ZM1.41819 15.548C1.28819 15.665 1.43819 15.865 1.59819 15.784L1.60419 15.781L10.8552 11.048L8.67019 9.108L1.41819 15.548ZM14.5902 7.466L12.0062 6.146L9.57719 8.303L12.0072 10.46L14.5902 9.14C14.7481 9.0644 14.8813 8.94571 14.9746 8.7976C15.0679 8.6495 15.1174 8.47803 15.1174 8.303C15.1174 8.12796 15.0679 7.95649 14.9746 7.80839C14.8813 7.66029 14.7481 7.54159 14.5902 7.466Z" fill="white" style="mix-blend-mode:multiply"/>
</g>
<defs>
<clipPath id="clip0_11168_10655">
<rect width="16" height="16" fill="white"/>
</clipPath>
</defs>
</svg>
