<svg width="79" height="11" viewBox="0 0 79 11" fill="none" xmlns="http://www.w3.org/2000/svg">
<g clip-path="url(#clip0_11168_10600)">
<g clip-path="url(#clip1_11168_10600)">
<g clip-path="url(#clip2_11168_10600)">
<path d="M4.77997 0.919981C5.12797 0.117981 6.26997 0.117981 6.61597 0.919981L7.29597 2.49198C7.36702 2.65604 7.48075 2.79804 7.62532 2.90322C7.76989 3.00839 7.94001 3.07288 8.11797 3.08998L9.82197 3.25298C10.692 3.33598 11.045 4.41798 10.39 4.99698L9.10297 6.13698C8.96912 6.25528 8.86941 6.40726 8.81419 6.57715C8.75897 6.74703 8.75026 6.9286 8.78897 7.10298L9.16197 8.78098C9.35197 9.63598 8.42997 10.305 7.67597 9.85898L6.20797 8.98898C6.0536 8.89745 5.87744 8.84916 5.69797 8.84916C5.5185 8.84916 5.34234 8.89745 5.18797 8.98898L3.71997 9.85898C2.96697 10.305 2.04497 9.63598 2.23497 8.78098L2.60697 7.10298C2.64561 6.92883 2.63696 6.74752 2.58193 6.57784C2.52689 6.40816 2.42747 6.25629 2.29397 6.13798L1.00597 4.99798C0.351969 4.41798 0.703969 3.33598 1.57397 3.25298L3.27997 3.08998C3.45793 3.07288 3.62805 3.00839 3.77262 2.90322C3.91719 2.79804 4.03092 2.65604 4.10197 2.49198L4.77997 0.919981Z" fill="white" style="mix-blend-mode:multiply"/>
</g>
</g>
<g clip-path="url(#clip3_11168_10600)">
<g clip-path="url(#clip4_11168_10600)">
<path d="M21.78 0.919981C22.128 0.117981 23.27 0.117981 23.616 0.919981L24.296 2.49198C24.367 2.65604 24.4807 2.79804 24.6253 2.90322C24.7699 3.00839 24.94 3.07288 25.118 3.08998L26.822 3.25298C27.692 3.33598 28.045 4.41798 27.39 4.99698L26.103 6.13698C25.9691 6.25528 25.8694 6.40726 25.8142 6.57715C25.759 6.74703 25.7503 6.9286 25.789 7.10298L26.162 8.78098C26.352 9.63598 25.43 10.305 24.676 9.85898L23.208 8.98898C23.0536 8.89745 22.8774 8.84916 22.698 8.84916C22.5185 8.84916 22.3423 8.89745 22.188 8.98898L20.72 9.85898C19.967 10.305 19.045 9.63598 19.235 8.78098L19.607 7.10298C19.6456 6.92883 19.637 6.74752 19.5819 6.57784C19.5269 6.40816 19.4275 6.25629 19.294 6.13798L18.006 4.99798C17.352 4.41798 17.704 3.33598 18.574 3.25298L20.28 3.08998C20.4579 3.07288 20.628 3.00839 20.7726 2.90322C20.9172 2.79804 21.0309 2.65604 21.102 2.49198L21.78 0.919981Z" fill="white" style="mix-blend-mode:multiply"/>
</g>
</g>
<g clip-path="url(#clip5_11168_10600)">
<g clip-path="url(#clip6_11168_10600)">
<path d="M38.78 0.919981C39.128 0.117981 40.27 0.117981 40.616 0.919981L41.296 2.49198C41.367 2.65604 41.4807 2.79804 41.6253 2.90322C41.7699 3.00839 41.94 3.07288 42.118 3.08998L43.822 3.25298C44.692 3.33598 45.045 4.41798 44.39 4.99698L43.103 6.13698C42.9691 6.25528 42.8694 6.40726 42.8142 6.57715C42.759 6.74703 42.7503 6.9286 42.789 7.10298L43.162 8.78098C43.352 9.63598 42.43 10.305 41.676 9.85898L40.208 8.98898C40.0536 8.89745 39.8774 8.84916 39.698 8.84916C39.5185 8.84916 39.3423 8.89745 39.188 8.98898L37.72 9.85898C36.967 10.305 36.045 9.63598 36.235 8.78098L36.607 7.10298C36.6456 6.92883 36.637 6.74752 36.5819 6.57784C36.5269 6.40816 36.4275 6.25629 36.294 6.13798L35.006 4.99798C34.352 4.41798 34.704 3.33598 35.574 3.25298L37.28 3.08998C37.4579 3.07288 37.628 3.00839 37.7726 2.90322C37.9172 2.79804 38.0309 2.65604 38.102 2.49198L38.78 0.919981Z" fill="white" style="mix-blend-mode:multiply"/>
</g>
</g>
<g clip-path="url(#clip7_11168_10600)">
<g clip-path="url(#clip8_11168_10600)">
<path d="M55.78 0.919981C56.128 0.117981 57.27 0.117981 57.616 0.919981L58.296 2.49198C58.367 2.65604 58.4807 2.79804 58.6253 2.90322C58.7699 3.00839 58.94 3.07288 59.118 3.08998L60.822 3.25298C61.692 3.33598 62.045 4.41798 61.39 4.99698L60.103 6.13698C59.9691 6.25528 59.8694 6.40726 59.8142 6.57715C59.759 6.74703 59.7503 6.9286 59.789 7.10298L60.162 8.78098C60.352 9.63598 59.43 10.305 58.676 9.85898L57.208 8.98898C57.0536 8.89745 56.8774 8.84916 56.698 8.84916C56.5185 8.84916 56.3423 8.89745 56.188 8.98898L54.72 9.85898C53.967 10.305 53.045 9.63598 53.235 8.78098L53.607 7.10298C53.6456 6.92883 53.637 6.74752 53.5819 6.57784C53.5269 6.40816 53.4275 6.25629 53.294 6.13798L52.006 4.99798C51.352 4.41798 51.704 3.33598 52.574 3.25298L54.28 3.08998C54.4579 3.07288 54.628 3.00839 54.7726 2.90322C54.9172 2.79804 55.0309 2.65604 55.102 2.49198L55.78 0.919981Z" fill="white" style="mix-blend-mode:multiply"/>
</g>
</g>
<g clip-path="url(#clip9_11168_10600)">
<g clip-path="url(#clip10_11168_10600)">
<path d="M72.78 0.919981C73.128 0.117981 74.27 0.117981 74.616 0.919981L75.296 2.49198C75.367 2.65604 75.4807 2.79804 75.6253 2.90322C75.7699 3.00839 75.94 3.07288 76.118 3.08998L77.822 3.25298C78.692 3.33598 79.045 4.41798 78.39 4.99698L77.103 6.13698C76.9691 6.25528 76.8694 6.40726 76.8142 6.57715C76.759 6.74703 76.7503 6.9286 76.789 7.10298L77.162 8.78098C77.352 9.63598 76.43 10.305 75.676 9.85898L74.208 8.98898C74.0536 8.89745 73.8774 8.84916 73.698 8.84916C73.5185 8.84916 73.3423 8.89745 73.188 8.98898L71.72 9.85898C70.967 10.305 70.045 9.63598 70.235 8.78098L70.607 7.10298C70.6456 6.92883 70.637 6.74752 70.5819 6.57784C70.5269 6.40816 70.4275 6.25629 70.294 6.13798L69.006 4.99798C68.352 4.41798 68.704 3.33598 69.574 3.25298L71.28 3.08998C71.4579 3.07288 71.628 3.00839 71.7726 2.90322C71.9172 2.79804 72.0309 2.65604 72.102 2.49198L72.78 0.919981Z" fill="white" style="mix-blend-mode:multiply"/>
</g>
</g>
</g>
<defs>
<clipPath id="clip0_11168_10600">
<rect width="76" height="11" fill="white"/>
</clipPath>
<clipPath id="clip1_11168_10600">
<rect width="11" height="11" fill="white"/>
</clipPath>
<clipPath id="clip2_11168_10600">
<rect width="11" height="11" fill="white"/>
</clipPath>
<clipPath id="clip3_11168_10600">
<rect width="11" height="11" fill="white" transform="translate(17)"/>
</clipPath>
<clipPath id="clip4_11168_10600">
<rect width="11" height="11" fill="white" transform="translate(17)"/>
</clipPath>
<clipPath id="clip5_11168_10600">
<rect width="11" height="11" fill="white" transform="translate(34)"/>
</clipPath>
<clipPath id="clip6_11168_10600">
<rect width="11" height="11" fill="white" transform="translate(34)"/>
</clipPath>
<clipPath id="clip7_11168_10600">
<rect width="11" height="11" fill="white" transform="translate(51)"/>
</clipPath>
<clipPath id="clip8_11168_10600">
<rect width="11" height="11" fill="white" transform="translate(51)"/>
</clipPath>
<clipPath id="clip9_11168_10600">
<rect width="11" height="11" fill="white" transform="translate(68)"/>
</clipPath>
<clipPath id="clip10_11168_10600">
<rect width="11" height="11" fill="white" transform="translate(68)"/>
</clipPath>
</defs>
</svg>
